<svg id="Ebene_1" data-name="Ebene 1" xmlns="http://www.w3.org/2000/svg" viewBox="0 0 281.33 152.7"><defs><style>.cls-1{fill:#6bc4c6;}.cls-2{fill:#8acc8a;}.cls-3{fill:#577857;}.cls-4{fill:#4aa997;}.cls-5{fill:#6b9b6b;}</style></defs><path class="cls-1" d="M58.67,24.67c1.59,4.41,3.79,7.8,8,9.24,2.11.72,4.1,1.57,3.8-2.42a13.4,13.4,0,0,1,3.89-10.61,7.86,7.86,0,0,0,2.19-4.19c1.07-6.17,5-9.47,10.7-11.5q36.38-13,69.12,7.29c1.5.93,4.44,1.31,3.35,4.27a6.12,6.12,0,0,1-6.43,4.14,15.73,15.73,0,0,1-9.19-3.36c-4.62-3.66-9.32-2.05-13.85-.38-2.23.82-4.18,1.14-6.2.17-1.65-.79-2.84-.86-4.21.6-1.72,1.82-4.55,2.28-5.6,5.13-.45,1.24-2.69.81-4.11,1.14-1.13.26-2.79,0-3.14,1.51-.28,1.18.72,2.09,1.53,2.9a22.51,22.51,0,0,0,1.74,1.65c1.22,1,1.83,2,.74,3.45-.64.89-.9,2,.45,2.54,1.1.45,2.34.59,2.77-1S115.77,33.4,117,33c.88-.27,1.91-.46,1.81-1.66-.13-1.56-1.38-1.18-2.36-1.2a4.19,4.19,0,0,1-3.89-2.31,1.52,1.52,0,0,1,.26-2.14,1.38,1.38,0,0,1,2.09.36c2.43,3.07,6.61,2.9,9.62,5.17,1.56,1.18,3.43-1.56,4.8-3,1.11-1.2,2-2.88,4.11-1.79-2,2.44-3.9,4.79-5.73,7.23-1.44,1.91-3.38,2-5.5,2-6.08-.06-6.1,0-6.94,6-.37,2.6-2.28,3-4.29,2.84-2.72-.17-5.33-.54-6.19,3-.19.83-1.25,1.1-2,.87-4-1.17-3.34,2-3.59,4-.33,2.57,1.46,3.29,3.7,3.31,3.11,0,6,0,6.43-4.27.24-2.3,2-1.65,3.44-1.07,2.54,1,4.76,1.78,5.77-2,.46-1.74,2-1.47,2.77-.08s1.71,1.67,3.2,1.94c2.75.49,3.16,2.89,3.25,5.29,0,1.06-.41,2.42,1.27,2.73a2.41,2.41,0,0,0,2.84-1.37A3.48,3.48,0,0,1,134.11,55c1.07-.28,2.08-.73,1.77-2s-.77-2.39-2.44-2.37a5.54,5.54,0,0,1-5.21-3.24c-.86-1.6-.43-2.63,1.27-3.11,2.77-.77,5.59-1.24,8.39-.18,2.53,1,4.75,1.88,3.4,5.62-1.08,3,.89,5.37,3.83,7.28-5.32,2.79-10.31,5.43-15.33,8a2.1,2.1,0,0,1-2.49-.64c-2.88-2.94-6.49-3.63-10.39-3.31-3.62.3-7-.07-9.83-2.72-1.74-1.6-3.62-1.78-5.06.68a4.05,4.05,0,0,1-2.83,1.78,7.74,7.74,0,0,0-4.93,3.4,4,4,0,0,1-3.15,1.77c-6.92.74-11,9.27-6.73,14.84,2.37,3.11,1.09,3.49-1.62,4.23-16.14,4.4-31.83,10.48-48.4,13.26-8.67,1.46-17.46,2.5-26-.66-5.31-2-6.58-4.71-5.12-10.15,1.34-5,4.19-9,7.64-12.77,8.45-9.16,18.68-16,29.2-22.45a8.57,8.57,0,0,0,3.85-4.5A65.54,65.54,0,0,1,58.67,24.67ZM37.31,84.21c8.49-.82,16.23-4.13,24.06-7.22-8.08.61-16,1.85-24.13,1.78A122.93,122.93,0,0,1,38,58.9a68.82,68.82,0,0,0-12.77,9c-3.73,3.18-7.3,6.53-9.58,11-2.47,4.83-1.12,7.72,4.28,7.74A65.65,65.65,0,0,0,37.31,84.21ZM94.94,25.82c.32-.22.91-.4,1-.72a10.15,10.15,0,0,1,4.54-6.05,1.9,1.9,0,0,0,.1-2.77,2.23,2.23,0,0,0-2.73-.8c-1.12.51-2.09,1.45-3.24,1.73-1.56.4-2.85,2.36-2.69,2.58,1.23,1.71.51,4.06,2,5.58A3.5,3.5,0,0,0,94.94,25.82Zm13.93,5.67c-2.91-1.46-5.12-.8-7.32.16-.57.24-1.26.62-.72,1.12a30.39,30.39,0,0,0,4.46,3.35c.41.25,1.08-.64.89-1.14C105.32,32.81,107.11,32.38,108.87,31.49Z" transform="translate(-2.67 -0.11)"/><path class="cls-2" d="M204.59,40.6A186.36,186.36,0,0,1,190.33,56c-1.4,1.34-1.9,2.55-1.25,4.49,1.52,4.57,1.78,9.37,2.28,14.12.28,2.67-.62,4.3-2.94,5.84-32.07,21.26-66.09,38.57-102.58,51-14.89,5.06-29.71,10.3-45.18,13.34-7.26,1.43-14.57,2.6-22,1.8-3.48-.38-6.74-1.23-9-4.18C7.18,139.25,6.47,136,8.24,132.2c3.73-8,10.24-13.47,16.61-19.23,7.51-6.78,16.16-9.65,26.07-11,32.38-4.42,63.3-14.08,93.06-27.5a366.1,366.1,0,0,0,56.75-32.17C201.71,41.61,202.55,40.57,204.59,40.6ZM103.72,108.85c-5.12.57-9.75,2.86-14.66,4.19a279.82,279.82,0,0,1-36.81,7.48c-3.55-3.83-5.36-8.65-7.41-13.31-.82-1.87-1.63-2.12-3.29-1.08-8.29,5.17-15.89,11-21,19.61-2.53,4.25-1.36,7.08,3.52,7.62a41.51,41.51,0,0,0,12.58-.55c6.88-1.37,13.84-2.49,20-6.19,8.63-1.71,16.82-4.89,25-7.91,7.55-2.78,15.22-5.42,22.08-9.81l1.45-.31c0-.09-.1-.23-.18-.25A1,1,0,0,0,103.72,108.85Z" transform="translate(-2.67 -0.11)"/><path class="cls-3" d="M201.68,88.83c-4.51,4-9,8-13.55,12a9.28,9.28,0,0,0-2.51,3.56c-11.79,27.64-32.44,44-62.39,47.88-16.17,2.08-31.44-1.81-46.68-9.66A379.05,379.05,0,0,0,201.11,88Z" transform="translate(-2.67 -0.11)"/><path class="cls-4" d="M284,6.09a6.52,6.52,0,0,1-1.63,4.21C279,14.75,274.54,17.94,270,20.93a4.36,4.36,0,0,0-2.25,4.73c.77,8.17,1.26,16.36,1.8,24.55.17,2.5-2.46,6.26-4.79,7.11-1.73.64-1.57-1-1.87-1.71-2.74-6.51-5.45-13-8-19.61-.84-2.19-1.54-2.6-3.54-1.11-5.56,4.17-11.23,8.22-16.95,12.17a3.7,3.7,0,0,0-1.77,4c.29,2.14.4,4.31.68,6.45.31,2.34-1.65,3-2.94,4.2-.57.51-1,.12-1.26-.51s-.58-1.25-.78-1.9c-1.87-6.14-5.38-10.91-11.21-13.9-.93-.48-3-1.17-2.14-2.46.92-1.45,2.45-3.17,4.83-2.22,2,.8,4.07,1.5,6,2.45,1.71.84,2.87.49,4.22-.79q7.68-7.3,15.58-14.4c1.85-1.66,1.51-2.63-.38-3.88-5.81-3.84-11.49-7.86-17.32-11.66-2-1.29-1.68-1.88-.09-3.38,2.55-2.41,5-2.71,8.26-1.6,7.23,2.43,14.65,4.28,21.92,6.59a5,5,0,0,0,5.51-1.29c3.46-3.14,7.06-6.14,10.71-9.06,2.79-2.23,6.64-2.36,8.48-.49A3.89,3.89,0,0,1,284,6.09Z" transform="translate(-2.67 -0.11)"/><path class="cls-4" d="M37.31,84.21c0-1.81-.05-3.63-.07-5.44,8.08.07,16-1.17,24.13-1.78C53.54,80.08,45.8,83.39,37.31,84.21Z" transform="translate(-2.67 -0.11)"/><path class="cls-5" d="M56.66,126.62c-1.19-2.23-3.53-3.64-4.41-6.1A279.82,279.82,0,0,0,89.06,113c4.91-1.33,9.54-3.62,14.66-4.19l0,.05c-6.86,4.39-14.53,7-22.08,9.81C73.48,121.73,65.29,124.91,56.66,126.62Z" transform="translate(-2.67 -0.11)"/><path class="cls-5" d="M103.72,108.85a1,1,0,0,1,1.31-.51c.08,0,.13.16.18.25l-1.45.31Z" transform="translate(-2.67 -0.11)"/></svg>